{
	"asset":{
		"generator":"Khronos glTF Blender I/O v4.5.47",
		"version":"2.0"
	},
	"extensionsUsed":[
		"KHR_materials_specular",
		"KHR_materials_ior"
	],
	"scene":0,
	"scenes":[
		{
			"name":"Scene",
			"nodes":[
				4
			]
		}
	],
	"nodes":[
		{
			"mesh":0,
			"name":"whell"
		},
		{
			"mesh":1,
			"name":"whell.001"
		},
		{
			"mesh":2,
			"name":"whell.002"
		},
		{
			"mesh":3,
			"name":"whell.003"
		},
		{
			"children":[
				0,
				1,
				2,
				3
			],
			"mesh":4,
			"name":"car2",
			"rotation":[
				0.7071068286895752,
				0,
				0,
				0.7071068286895752
			]
		}
	],
	"materials":[
		{
			"doubleSided":true,
			"extensions":{
				"KHR_materials_specular":{
					"specularColorFactor":[
						4.0,
						4.0,
						4.0
					]
				},
				"KHR_materials_ior":{
					"ior":1.4500000476837158
				}
			},
			"name":"Material.car2",
			"pbrMetallicRoughness":{
				"baseColorTexture":{
					"index":0
				},
				"roughnessFactor":0.5527864098548889
			}
		}
	],
	"meshes":[
		{
			"name":"car2.018",
			"primitives":[
				{
					"attributes":{
						"POSITION":0,
						"NORMAL":1,
						"TEXCOORD_0":2
					},
					"indices":3,
					"material":0
				}
			]
		},
		{
			"name":"car2.019",
			"primitives":[
				{
					"attributes":{
						"POSITION":4,
						"NORMAL":5,
						"TEXCOORD_0":6
					},
					"indices":7,
					"material":0
				}
			]
		},
		{
			"name":"car2.020",
			"primitives":[
				{
					"attributes":{
						"POSITION":8,
						"NORMAL":9,
						"TEXCOORD_0":10
					},
					"indices":11,
					"material":0
				}
			]
		},
		{
			"name":"car2.021",
			"primitives":[
				{
					"attributes":{
						"POSITION":12,
						"NORMAL":13,
						"TEXCOORD_0":14
					},
					"indices":15,
					"material":0
				}
			]
		},
		{
			"name":"car2.017",
			"primitives":[
				{
					"attributes":{
						"POSITION":16,
						"NORMAL":17,
						"TEXCOORD_0":18
					},
					"indices":19,
					"material":0
				}
			]
		}
	],
	"textures":[
		{
			"sampler":0,
			"source":0
		}
	],
	"images":[
		{
			"mimeType":"image/png",
			"name":"Car Texture 1",
			"uri":"Car%20Texture%201.png"
		}
	],
	"accessors":[
		{
			"bufferView":0,
			"componentType":5126,
			"count":337,
			"max":[
				-0.9234839081764221,
				-0.5183209776878357,
				6.439146460479606e-08
			],
			"min":[
				-1.5343931913375854,
				-0.8641418814659119,
				-0.6109094619750977
			],
			"type":"VEC3"
		},
		{
			"bufferView":1,
			"componentType":5126,
			"count":337,
			"type":"VEC3"
		},
		{
			"bufferView":2,
			"componentType":5126,
			"count":337,
			"type":"VEC2"
		},
		{
			"bufferView":3,
			"componentType":5123,
			"count":954,
			"type":"SCALAR"
		},
		{
			"bufferView":4,
			"componentType":5126,
			"count":337,
			"max":[
				1.5343927145004272,
				-0.5183218717575073,
				6.439150013193284e-08
			],
			"min":[
				0.92348313331604,
				-0.8641428351402283,
				-0.6109094619750977
			],
			"type":"VEC3"
		},
		{
			"bufferView":5,
			"componentType":5126,
			"count":337,
			"type":"VEC3"
		},
		{
			"bufferView":6,
			"componentType":5126,
			"count":337,
			"type":"VEC2"
		},
		{
			"bufferView":7,
			"componentType":5123,
			"count":954,
			"type":"SCALAR"
		},
		{
			"bufferView":8,
			"componentType":5126,
			"count":337,
			"max":[
				1.5343929529190063,
				0.8641421794891357,
				-9.282596025173007e-09
			],
			"min":[
				0.9234834909439087,
				0.5183213353157043,
				-0.6109094619750977
			],
			"type":"VEC3"
		},
		{
			"bufferView":9,
			"componentType":5126,
			"count":337,
			"type":"VEC3"
		},
		{
			"bufferView":10,
			"componentType":5126,
			"count":337,
			"type":"VEC2"
		},
		{
			"bufferView":11,
			"componentType":5123,
			"count":954,
			"type":"SCALAR"
		},
		{
			"bufferView":12,
			"componentType":5126,
			"count":337,
			"max":[
				-0.9234835505485535,
				0.8641424179077148,
				-9.282603130600364e-09
			],
			"min":[
				-1.5343929529190063,
				0.5183215737342834,
				-0.6109094619750977
			],
			"type":"VEC3"
		},
		{
			"bufferView":13,
			"componentType":5126,
			"count":337,
			"type":"VEC3"
		},
		{
			"bufferView":14,
			"componentType":5126,
			"count":337,
			"type":"VEC2"
		},
		{
			"bufferView":15,
			"componentType":5123,
			"count":954,
			"type":"SCALAR"
		},
		{
			"bufferView":16,
			"componentType":5126,
			"count":2933,
			"max":[
				2.091134786605835,
				0.9840434789657593,
				-0.22120840847492218
			],
			"min":[
				-1.8678845167160034,
				-0.984043538570404,
				-1.3013598918914795
			],
			"type":"VEC3"
		},
		{
			"bufferView":17,
			"componentType":5126,
			"count":2933,
			"type":"VEC3"
		},
		{
			"bufferView":18,
			"componentType":5126,
			"count":2933,
			"type":"VEC2"
		},
		{
			"bufferView":19,
			"componentType":5123,
			"count":7578,
			"type":"SCALAR"
		}
	],
	"bufferViews":[
		{
			"buffer":0,
			"byteLength":4044,
			"byteOffset":0,
			"target":34962
		},
		{
			"buffer":0,
			"byteLength":4044,
			"byteOffset":4044,
			"target":34962
		},
		{
			"buffer":0,
			"byteLength":2696,
			"byteOffset":8088,
			"target":34962
		},
		{
			"buffer":0,
			"byteLength":1908,
			"byteOffset":10784,
			"target":34963
		},
		{
			"buffer":0,
			"byteLength":4044,
			"byteOffset":12692,
			"target":34962
		},
		{
			"buffer":0,
			"byteLength":4044,
			"byteOffset":16736,
			"target":34962
		},
		{
			"buffer":0,
			"byteLength":2696,
			"byteOffset":20780,
			"target":34962
		},
		{
			"buffer":0,
			"byteLength":1908,
			"byteOffset":23476,
			"target":34963
		},
		{
			"buffer":0,
			"byteLength":4044,
			"byteOffset":25384,
			"target":34962
		},
		{
			"buffer":0,
			"byteLength":4044,
			"byteOffset":29428,
			"target":34962
		},
		{
			"buffer":0,
			"byteLength":2696,
			"byteOffset":33472,
			"target":34962
		},
		{
			"buffer":0,
			"byteLength":1908,
			"byteOffset":36168,
			"target":34963
		},
		{
			"buffer":0,
			"byteLength":4044,
			"byteOffset":38076,
			"target":34962
		},
		{
			"buffer":0,
			"byteLength":4044,
			"byteOffset":42120,
			"target":34962
		},
		{
			"buffer":0,
			"byteLength":2696,
			"byteOffset":46164,
			"target":34962
		},
		{
			"buffer":0,
			"byteLength":1908,
			"byteOffset":48860,
			"target":34963
		},
		{
			"buffer":0,
			"byteLength":35196,
			"byteOffset":50768,
			"target":34962
		},
		{
			"buffer":0,
			"byteLength":35196,
			"byteOffset":85964,
			"target":34962
		},
		{
			"buffer":0,
			"byteLength":23464,
			"byteOffset":121160,
			"target":34962
		},
		{
			"buffer":0,
			"byteLength":15156,
			"byteOffset":144624,
			"target":34963
		}
	],
	"samplers":[
		{
			"magFilter":9729,
			"minFilter":9987
		}
	],
	"buffers":[
		{
			"byteLength":159780,
			"uri":"LowPolyCars.bin"
		}
	]
}
